<svg width="217" height="217" viewBox="0 0 217 217" fill="none" xmlns="http://www.w3.org/2000/svg">
<g clip-path="url(#clip0_607_38)">
<path d="M107.952 216.953C98.8908 216.953 89.8295 217.068 80.7711 216.924C68.8151 216.735 56.856 216.426 45.0177 214.467C38.5597 213.398 32.2489 211.776 26.3886 208.775C17.7367 204.343 11.4023 197.675 7.40319 188.787C3.78102 180.742 2.21142 172.189 1.51349 163.502C0.821451 154.879 0.35322 146.224 0.203033 137.574C-0.0413897 123.2 -0.000161838 108.82 0.00572786 94.4423C0.00572786 87.3155 0.0469557 80.1827 0.332606 73.0648C0.624146 65.7465 1.03642 58.4224 1.76086 51.1395C2.60014 42.6992 4.32582 34.415 8.11584 26.7257C10.672 21.5396 14.1675 17.0573 18.6437 13.3614C26.4593 6.90603 35.7474 4.09653 45.5243 2.53275C57.4067 0.627354 69.3952 0.279848 81.3984 0.197389C93.1159 0.117875 104.833 -0.0470437 116.548 0.0148007C128.142 0.076645 139.739 0.232728 151.327 0.612629C160.706 0.918906 170.053 1.78178 179.191 4.12009C185.555 5.74865 191.559 8.17825 196.848 12.1981C203.66 17.3783 208.283 24.1046 211.107 32.1267C214.199 40.9116 215.348 50.0498 215.954 59.2705C217.492 82.6418 216.894 106.048 216.867 129.44C216.856 139.898 216.328 150.367 215.701 160.813C215.189 169.348 213.805 177.779 210.78 185.848C208.81 191.102 206.004 195.832 202.187 199.99C196.954 205.691 190.517 209.379 183.24 211.746C174.903 214.459 166.275 215.475 157.588 216.09C141.061 217.256 124.508 216.979 107.961 216.95L107.952 216.953Z" fill="white"/>
<path d="M175.145 78.5658C175.145 57.9275 158.415 41.1971 137.778 41.1971H46.4727V175.726H46.4815L46.4727 175.809H75.1025C76.6897 173.453 77.0166 172.154 78.2358 170.667C71.1711 168.09 66.7862 160.798 66.3474 152.264C64.7042 152.9 62.2453 153.174 60.7287 150.137C58.2903 145.263 63.167 141.606 63.167 141.606C63.167 141.606 64.9251 143.361 67.2221 143.626C67.3929 142.955 67.5754 142.28 67.7963 141.609C70.1051 134.591 74.6755 129.14 80.0145 126.192C82.7738 118.467 86.4755 109.456 88.7548 105.657C92.4094 99.5635 91.0753 91.7652 91.0753 91.7652C90.5541 91.2439 90.0505 90.6491 89.5735 90.0129C86.3165 85.6779 84.7675 80.2945 85.0148 74.8787C85.0767 73.5034 85.3653 72.1635 85.8541 70.9089C78.5509 67.6017 57.4275 63.7379 52.9719 48.9984C52.9719 48.9984 71.819 45.0992 88.7136 61.3466C87.7388 57.2737 85.4654 54.5231 86.4401 46.398C86.4401 46.398 94.562 48.9984 100.655 61.1199C112.652 58.8346 120.38 63.6172 120.38 63.6172C124.591 62.398 127.138 66.0556 127.138 66.0556C128.357 68.4941 125.919 72.1488 125.919 72.1488C127.138 78.2419 123.48 79.4611 123.48 79.4611C126.525 87.9927 116.168 86.7735 113.733 94.0829C111.295 101.395 118.607 105.05 119.826 111.143C121.045 117.236 124.7 117.236 127.02 124.03C129.341 130.824 123.483 135.516 121.045 129.423C118.607 123.329 114.849 124.03 114.849 124.03C117.181 134.479 113.736 135.516 113.736 135.516C113.736 135.516 127.141 131.861 127.141 146.483C127.141 161.104 110.081 165.981 110.081 165.981H127.141C135.563 165.981 136.117 173.706 136.111 175.812H175.148L143.735 115.466C161.543 112.616 175.148 97.1839 175.148 78.5717L175.145 78.5658Z" fill="url(#paint0_linear_607_38)"/>
<path d="M115.105 78.8397L116.963 73.9864L110.541 71.5244L112.867 65.0514L107.973 63.2932L105.685 69.6632L99.365 67.2424L97.5068 72.0957L103.93 74.5577L101.603 81.0308L106.497 82.7889L108.786 76.4189L115.105 78.8397Z" fill="url(#paint1_linear_607_38)"/>
</g>
<defs>
<linearGradient id="paint0_linear_607_38" x1="39.5169" y1="48.1502" x2="171.163" y2="179.791" gradientUnits="userSpaceOnUse">
<stop stop-color="#F6E1EF"/>
<stop offset="0.1" stop-color="#E4A6C9"/>
<stop offset="0.2" stop-color="#D676A9"/>
<stop offset="0.29" stop-color="#CA5091"/>
<stop offset="0.37" stop-color="#C2357F"/>
<stop offset="0.44" stop-color="#BD2474"/>
<stop offset="0.5" stop-color="#BC1F71"/>
<stop offset="1" stop-color="#752375"/>
</linearGradient>
<linearGradient id="paint1_linear_607_38" x1="100.402" y1="66.2058" x2="114.069" y2="79.8758" gradientUnits="userSpaceOnUse">
<stop stop-color="#F6E1EF"/>
<stop offset="0.1" stop-color="#E4A6C9"/>
<stop offset="0.2" stop-color="#D676A9"/>
<stop offset="0.29" stop-color="#CA5091"/>
<stop offset="0.37" stop-color="#C2357F"/>
<stop offset="0.44" stop-color="#BD2474"/>
<stop offset="0.5" stop-color="#BC1F71"/>
<stop offset="1" stop-color="#752375"/>
</linearGradient>
<clipPath id="clip0_607_38">
<rect width="217" height="217" fill="white"/>
</clipPath>
</defs>
</svg>
