<svg width="285" height="297" viewBox="0 0 285 297" fill="none" xmlns="http://www.w3.org/2000/svg">
<g clip-path="url(#clip0_505_25)">
<path d="M285 82.4518C285 36.9148 247.949 0 202.237 0H0V296.822H0.0183469L0 297H63.4159C66.9339 291.8 67.654 288.935 70.351 285.65C54.7011 279.966 44.9911 263.878 44.0187 245.048C40.3814 246.455 34.9324 247.054 31.5703 240.36C26.1718 229.604 36.9689 221.539 36.9689 221.539C36.9689 221.539 40.863 225.409 45.9497 225.994C46.3304 224.509 46.734 223.024 47.2248 221.544C52.3344 206.059 62.4619 194.037 74.291 187.53C80.4005 170.487 88.597 150.606 93.6469 142.222C101.742 128.779 98.7886 111.571 98.7886 111.571C97.6328 110.42 96.5182 109.109 95.4633 107.706C88.253 98.1379 84.8221 86.2625 85.3679 74.3094C85.5055 71.2754 86.1477 68.3191 87.2255 65.5502C71.0482 58.2531 24.2637 49.7269 14.3931 17.2077C14.3931 17.2077 56.1368 8.60386 93.5598 44.454C91.404 35.4664 86.3632 29.3984 88.5236 11.4733C88.5236 11.4733 106.517 17.2077 120.011 43.956C146.587 38.9116 163.7 49.4665 163.7 49.4665C173.025 46.7798 178.666 54.8445 178.666 54.8445C181.363 60.2225 175.969 68.2872 175.969 68.2872C178.666 81.7298 170.571 84.4211 170.571 84.4211C177.318 103.242 154.375 100.555 148.981 116.684C143.582 132.818 159.778 140.883 162.475 154.326C165.172 167.768 173.272 167.768 178.409 182.756C183.547 197.743 170.571 208.096 165.177 194.654C159.778 181.211 151.449 182.756 151.449 182.756C156.613 205.812 148.981 208.096 148.981 208.096C148.981 208.096 178.671 200.032 178.671 232.295C178.671 264.558 140.885 275.314 140.885 275.314H178.671C197.325 275.314 198.554 292.358 198.54 297.005H285.009L215.429 163.857C254.87 157.565 285.009 123.515 285.009 82.4518H285Z" fill="url(#paint0_linear_505_25)"/>
<path d="M152.013 83.0595L156.132 72.3446L141.908 66.9164L147.055 52.633L136.216 48.7537L131.152 62.8087L117.154 57.4672L113.035 68.1775L127.258 73.6103L122.112 87.8937L132.95 91.7684L138.014 77.7135L152.013 83.0595Z" fill="url(#paint1_linear_505_25)"/>
</g>
<defs>
<linearGradient id="paint0_linear_505_25" x1="-15.4022" y1="15.3435" x2="275.053" y2="306.914" gradientUnits="userSpaceOnUse">
<stop stop-color="#F6E1EF"/>
<stop offset="0.1" stop-color="#E4A6C9"/>
<stop offset="0.2" stop-color="#D676A9"/>
<stop offset="0.29" stop-color="#CA5091"/>
<stop offset="0.37" stop-color="#C2357F"/>
<stop offset="0.44" stop-color="#BD2474"/>
<stop offset="0.5" stop-color="#BC1F71"/>
<stop offset="1" stop-color="#752375"/>
</linearGradient>
<linearGradient id="paint1_linear_505_25" x1="119.447" y1="55.1826" x2="149.604" y2="85.4547" gradientUnits="userSpaceOnUse">
<stop stop-color="#F6E1EF"/>
<stop offset="0.1" stop-color="#E4A6C9"/>
<stop offset="0.2" stop-color="#D676A9"/>
<stop offset="0.29" stop-color="#CA5091"/>
<stop offset="0.37" stop-color="#C2357F"/>
<stop offset="0.44" stop-color="#BD2474"/>
<stop offset="0.5" stop-color="#BC1F71"/>
<stop offset="1" stop-color="#752375"/>
</linearGradient>
<clipPath id="clip0_505_25">
<rect width="285" height="297" fill="white"/>
</clipPath>
</defs>
</svg>
