<svg width="283" height="297" viewBox="0 0 283 297" fill="none" xmlns="http://www.w3.org/2000/svg">
<g clip-path="url(#clip0_505_28)">
<path d="M283 82.4518C283 36.9148 246.209 0 200.818 0H0V296.822H0.0182181L0 297H62.9709C66.4642 291.8 67.1793 288.935 69.8573 285.65C54.3173 279.966 44.6753 263.878 43.7098 245.048C40.098 246.455 34.6873 247.054 31.3488 240.36C25.9881 229.604 36.7095 221.539 36.7095 221.539C36.7095 221.539 40.5763 225.409 45.6272 225.994C46.0053 224.509 46.4061 223.024 46.8934 221.544C51.9671 206.059 62.0235 194.037 73.7696 187.53C79.8363 170.487 87.9752 150.606 92.9897 142.222C101.028 128.779 98.0954 111.571 98.0954 111.571C96.9476 110.42 95.8409 109.109 94.7933 107.706C87.6336 98.1379 84.2268 86.2625 84.7688 74.3094C84.9055 71.2754 85.5431 68.3191 86.6134 65.5502C70.5496 58.2531 24.0934 49.7269 14.2921 17.2077C14.2921 17.2077 55.7428 8.60386 92.9032 44.454C90.7626 35.4664 85.7572 29.3984 87.9023 11.4733C87.9023 11.4733 105.77 17.2077 119.169 43.956C145.558 38.9116 162.551 49.4665 162.551 49.4665C171.81 46.7798 177.412 54.8445 177.412 54.8445C180.09 60.2225 174.734 68.2871 174.734 68.2871C177.412 81.7298 169.374 84.4211 169.374 84.4211C176.073 103.242 153.292 100.555 147.936 116.684C142.575 132.818 158.657 140.883 161.335 154.326C164.013 167.768 172.056 167.768 177.157 182.756C182.258 197.743 169.374 208.096 164.018 194.654C158.657 181.211 150.386 182.756 150.386 182.756C155.514 205.812 147.936 208.096 147.936 208.096C147.936 208.096 177.417 200.032 177.417 232.295C177.417 264.558 139.897 275.314 139.897 275.314H177.417C195.94 275.314 197.161 292.358 197.147 297.005H283.009L213.917 163.857C253.081 157.565 283.009 123.515 283.009 82.4518H283Z" fill="url(#paint0_linear_505_28)"/>
<path d="M150.946 83.0595L155.036 72.3446L140.912 66.9164L146.023 52.633L135.26 48.7537L130.232 62.8087L116.332 57.4672L112.242 68.1775L126.365 73.6103L121.255 87.8937L132.017 91.7684L137.046 77.7135L150.946 83.0595Z" fill="url(#paint1_linear_505_28)"/>
</g>
<defs>
<linearGradient id="paint0_linear_505_28" x1="-15.2941" y1="15.3435" x2="275.161" y2="304.869" gradientUnits="userSpaceOnUse">
<stop stop-color="#FCD3B5"/>
<stop offset="0.05" stop-color="#F4B99C"/>
<stop offset="0.16" stop-color="#E58A6C"/>
<stop offset="0.26" stop-color="#DA6447"/>
<stop offset="0.35" stop-color="#D1492C"/>
<stop offset="0.44" stop-color="#CC381C"/>
<stop offset="0.5" stop-color="#CB3317"/>
<stop offset="1" stop-color="#67140F"/>
</linearGradient>
<linearGradient id="paint1_linear_505_28" x1="118.609" y1="55.1826" x2="148.766" y2="85.2423" gradientUnits="userSpaceOnUse">
<stop stop-color="#FCD3B5"/>
<stop offset="0.05" stop-color="#F4B99C"/>
<stop offset="0.16" stop-color="#E58A6C"/>
<stop offset="0.26" stop-color="#DA6447"/>
<stop offset="0.35" stop-color="#D1492C"/>
<stop offset="0.44" stop-color="#CC381C"/>
<stop offset="0.5" stop-color="#CB3317"/>
<stop offset="1" stop-color="#67140F"/>
</linearGradient>
<clipPath id="clip0_505_28">
<rect width="283" height="297" fill="white"/>
</clipPath>
</defs>
</svg>
