<svg width="322" height="317" viewBox="0 0 322 317" fill="none" xmlns="http://www.w3.org/2000/svg">
<g clip-path="url(#clip0_505_17)">
<path d="M212.726 0H109.274C88.7115 0 69.7156 10.9908 59.4341 28.8333L7.71026 118.595C-2.57123 136.437 -2.57123 158.419 7.71026 176.258L59.4341 266.023C69.7156 283.866 88.7151 294.856 109.274 294.856H212.722C233.285 294.856 252.281 283.866 262.562 266.023L314.286 176.258C324.568 158.415 324.568 136.434 314.286 118.595L262.562 28.8296C252.285 10.9908 233.285 0 212.726 0Z" fill="url(#paint0_linear_505_17)"/>
<g opacity="0.25">
<path d="M225.233 110.601H172.755C152.192 110.601 133.196 121.591 122.914 139.434L96.6755 184.971C86.394 202.813 86.394 224.795 96.6755 242.634L122.914 288.17C133.196 306.013 152.195 317.004 172.755 317.004H225.233C245.796 317.004 264.792 306.013 275.073 288.17L301.312 242.634C311.593 224.791 311.593 202.81 301.312 184.971L275.073 139.434C264.792 121.591 245.792 110.601 225.233 110.601Z" fill="#010101"/>
</g>
<path d="M187.241 44.2285H134.763C114.2 44.2285 95.204 55.2192 84.9225 73.0617L58.6835 118.599C48.402 136.441 48.402 158.423 58.6835 176.261L84.9225 221.798C95.204 239.641 114.204 250.632 134.763 250.632H187.241C207.804 250.632 226.8 239.641 237.081 221.798L263.32 176.261C273.602 158.419 273.602 136.437 263.32 118.599L237.081 73.0617C226.8 55.2192 207.8 44.2285 187.241 44.2285Z" fill="white"/>
<path d="M188.072 197.661H170.18C170.18 197.661 188.072 192.537 188.072 177.172C188.072 161.806 174.016 165.647 174.016 165.647C174.016 165.647 177.632 164.556 175.186 153.58C175.186 153.58 179.13 152.842 181.686 159.244C184.243 165.647 190.386 160.715 187.954 153.58C185.523 146.44 181.686 146.44 180.41 140.038C179.133 133.636 171.464 129.796 174.02 122.111C176.577 114.43 187.439 115.709 184.243 106.745C184.243 106.745 188.076 105.466 186.799 99.0643C186.799 99.0643 189.356 95.2238 188.076 92.6623C188.076 92.6623 185.405 88.8218 180.991 90.1007C180.991 90.1007 172.744 84.9776 159.961 87.5391C147.182 90.1007 147.822 98.423 147.822 98.423C147.822 98.423 122.263 92.021 105.651 112.506C105.651 112.506 119.707 113.785 137.599 106.104C137.599 106.104 117.15 117.629 114.597 136.835C114.597 136.835 128.653 139.397 146.545 112.506C146.545 112.506 146.545 118.908 150.378 122.749C150.378 122.749 151.655 127.872 147.822 134.274C145.431 138.265 141.55 147.734 138.655 155.85C133.052 158.95 128.259 164.674 125.839 172.049C125.607 172.756 125.416 173.464 125.235 174.168C122.826 173.888 120.983 172.045 120.983 172.045C120.983 172.045 115.87 175.885 118.427 181.009C120.019 184.197 122.598 183.913 124.32 183.242C124.783 192.209 129.378 199.872 136.79 202.577C135.55 204.597 134.344 207.14 135.039 208.537C136.315 211.099 197.467 208.537 197.467 208.537C197.467 208.537 198.298 197.653 188.072 197.653V197.661Z" fill="url(#paint1_linear_505_17)"/>
</g>
<defs>
<linearGradient id="paint0_linear_505_17" x1="49.6492" y1="35.8582" x2="272.789" y2="258.563" gradientUnits="userSpaceOnUse">
<stop stop-color="#F4E600"/>
<stop offset="0.03" stop-color="#F2C607"/>
<stop offset="0.07" stop-color="#F0A90E"/>
<stop offset="0.1" stop-color="#EF9214"/>
<stop offset="0.14" stop-color="#EE8217"/>
<stop offset="0.19" stop-color="#EE781A"/>
<stop offset="0.25" stop-color="#EE761B"/>
<stop offset="0.28" stop-color="#EC681D"/>
<stop offset="0.4" stop-color="#E73825"/>
<stop offset="0.46" stop-color="#E52629"/>
<stop offset="0.66" stop-color="#B72448"/>
<stop offset="0.89" stop-color="#872368"/>
<stop offset="1" stop-color="#752375"/>
</linearGradient>
<linearGradient id="paint1_linear_505_17" x1="114.45" y1="103.369" x2="208.627" y2="197.363" gradientUnits="userSpaceOnUse">
<stop stop-color="#F4E600"/>
<stop offset="0.03" stop-color="#F2C607"/>
<stop offset="0.07" stop-color="#F0A90E"/>
<stop offset="0.1" stop-color="#EF9214"/>
<stop offset="0.14" stop-color="#EE8217"/>
<stop offset="0.19" stop-color="#EE781A"/>
<stop offset="0.25" stop-color="#EE761B"/>
<stop offset="0.28" stop-color="#EC681D"/>
<stop offset="0.4" stop-color="#E73825"/>
<stop offset="0.46" stop-color="#E52629"/>
<stop offset="0.66" stop-color="#B72448"/>
<stop offset="0.89" stop-color="#872368"/>
<stop offset="1" stop-color="#752375"/>
</linearGradient>
<clipPath id="clip0_505_17">
<rect width="322" height="317" fill="white"/>
</clipPath>
</defs>
</svg>
