<svg width="123" height="56" viewBox="0 0 123 56" fill="none" xmlns="http://www.w3.org/2000/svg">
<g clip-path="url(#clip0_575_2)">
<path d="M44.7762 12.5946C44.8037 11.5341 45.3596 12.1823 45.8815 12.5743C46.4052 12.9654 46.6262 13.5359 46.7345 14.6592C46.8519 15.8732 46.995 16.6036 47.3976 17.1463C47.7948 16.8995 49.044 15.1354 49.6613 13.8363C49.5733 13.5377 49.355 13.4286 49.5549 13.0227C50.1594 12.1296 50.7923 11.3427 50.8987 10.5291C51.0298 10.3618 51.5041 10.2406 51.6471 10.0012C52.0709 9.28833 52.2002 7.60282 50.7547 8.14C48.4772 7.55566 47.3087 6.60334 46.7803 6.02918C46.6262 5.86183 46.7666 5.59278 46.9904 5.62699H46.9986C46.5428 4.86236 46.5052 4.13471 46.5483 3.67612C46.5694 3.45237 46.8225 3.33403 47.0069 3.46069C47.0179 3.46809 47.0289 3.47549 47.0408 3.48381C47.0234 3.09641 47.2674 2.30497 47.471 1.71878C47.5774 1.41182 47.9581 1.32306 48.1984 1.54034C48.2149 1.55513 48.2323 1.57085 48.2506 1.58564C48.3259 1.28516 48.7129 0.808072 49.0633 0.422522C49.277 0.187678 49.6659 0.33931 49.6659 0.65829C49.8209 0.50296 49.9741 0.368896 50.2649 0.152544C50.6941 -0.167361 51.3013 0.0360471 51.4701 0.546416C51.5041 0.649969 51.5444 0.751673 51.5912 0.851527C52.1599 0.851527 52.7432 1.80939 53.8054 2.23747C53.9457 2.95033 54.1576 2.95033 54.7253 3.45052C54.5823 3.80741 55.6306 4.38897 55.5609 5.38382C54.8776 6.26865 53.122 6.85853 55.6811 7.3615C57.0909 6.89181 57.9576 6.72169 58.4777 6.80213C58.6566 6.78456 58.9492 6.85853 59.3849 7.05731C60.6405 7.40773 62.9318 8.17143 63.6463 8.3055C63.8949 8.27406 63.9444 8.58657 63.9426 8.85655C66.7328 9.6859 69.788 10.3627 70.1788 10.5402C70.7016 9.10064 75.9004 6.88072 77.1809 5.2664C78.1898 3.9951 78.0073 3.42741 78.3797 3.0169C78.7512 2.60731 79.019 1.92127 79.5684 1.77518C80.1197 1.6291 79.9784 2.14964 79.7243 2.4002C79.4721 2.65169 79.0062 3.43388 79.3391 3.24434C79.6693 3.0548 80.2949 2.39465 80.327 2.10433C80.3591 1.81124 80.9864 1.14924 81.2579 2.12005C81.2579 2.12005 81.1121 4.22625 80.847 4.90951C79.6812 5.78879 79.3217 5.26178 78.5769 6.08373C77.8303 6.90476 72.4287 11.9927 71.2162 13.0236C70.7539 13.5571 66.0182 12.9275 63.2996 12.5697C65.8944 14.3162 68.1902 19.6529 69.5743 21.2912C69.7064 21.4475 69.6743 21.6851 69.5046 21.7998C69.3854 21.8802 69.2533 21.9625 69.1313 22.0198C69.8871 24.5402 72.2866 28.1562 73.9321 30.6739C74.8621 32.0968 75.3116 33.7879 75.1877 35.4872C74.8172 40.5697 73.5432 45.8222 74.9245 49.5806C73.0864 50.0799 73.7229 50.0799 73.7229 50.0799C73.7229 50.0799 74.0054 51.1487 74.5007 52.3608C74.997 53.5739 78.0385 54.7869 77.3304 55.9981C74.5714 55.5701 72.9433 54.786 71.2455 52.432L70.752 53.0034L68.7699 51.0775C68.7699 51.0775 68.5571 49.7942 69.124 49.1507C69.6899 48.509 69.6183 46.4408 69.8321 45.015C70.0421 43.5893 69.7596 42.0203 69.9018 41.3066C70.0421 40.5937 70.2558 38.9535 70.3264 38.5966C70.3961 38.2397 69.7587 38.4533 69.9018 37.5981C70.0421 36.7419 70.3264 34.9584 69.8321 34.2455C69.4129 33.6455 69.0497 32.7995 68.9451 32.5452C69.0267 32.7375 69.3404 33.5345 69.3991 34.6607C68.9754 35.7304 68.204 39.3807 67.6371 41.0209C67.073 42.6564 66.1026 45.0585 66.0944 45.7889L65.6568 48.0098C65.3725 49.1498 65.0203 48.865 64.0288 48.6514C64.0288 48.6514 63.6775 49.1766 63.5344 49.7933C62.9685 51.9328 62.2604 52.0751 61.3422 51.2902C60.4232 50.5052 60.281 49.7933 60.4919 49.1507C60.9185 48.6514 61.6256 47.369 61.7678 46.7264C61.4138 46.5757 61.1212 46.2808 61.1212 46.2808C61.1212 46.2808 61.766 45.0659 62.6823 42.6435C63.7903 39.7117 63.6169 35.8543 65.1725 33.7971L65.1817 33.5392C64.3397 32.9104 64.0003 30.2717 63.1693 28.1914C62.8254 27.3315 62.3191 26.8923 61.7935 24.6891C61.3688 22.9065 61.5238 22.3582 59.7554 19.933C59.0409 18.9548 57.2697 16.6036 54.5951 16.0747C54.1668 15.7447 53.7448 15.3702 53.3376 14.9856C53.3229 14.9921 53.3036 15.0059 53.289 15.0133L52.1929 16.1644C52.081 16.158 51.9361 16.1422 51.7728 16.1164C51.4729 16.3854 50.9867 17.0076 50.6143 17.3932C48.4414 19.6483 48.08 20.5081 47.26 20.4157C46.7262 20.3556 45.676 18.6368 45.51 17.3627C45.3751 16.3456 45.3164 15.6809 45.3073 15.1243C45.2972 14.5668 43.7296 14.6389 43.8489 13.6866C43.9663 12.7333 44.756 13.6523 44.7799 12.5909L44.7762 12.5946Z" fill="white"/>
<path d="M41.7439 34.6367V40.0344H25.054C23.4094 40.0344 22.0767 38.691 22.0767 37.0332V15.3407H41.2898V20.7384H28.9366V24.9009H39.8205V30.122H28.9366V34.6376H41.7448L41.7439 34.6367ZM22.1171 15.3407H28.4863L28.4267 36.374C28.4212 38.3979 26.7922 40.0344 24.7844 40.0344C23.4993 40.0344 22.3097 39.3521 21.653 38.2379L14.3124 25.782L6.77096 38.2666C6.10781 39.3641 4.9255 40.0335 3.65148 40.0335C1.63541 40.0344 0 38.3859 0 36.3527V15.3407H6.40407V28.0759L12.6687 17.7751H15.7488L22.0483 28.4291L22.118 15.3416L22.1171 15.3407Z" fill="white"/>
<path d="M110.192 20.7383V25.254H121.076V30.4751H110.192V34.6376H122.545V40.0353H103.332V18.3428C103.332 16.685 104.665 15.3416 106.309 15.3416H122.999V20.7393H110.191L110.192 20.7383ZM103.304 26.9469L97.004 37.6008H93.924L87.6593 27.3001V40.0353H81.2552V19.0223C81.2552 16.9892 82.8907 15.3406 84.9076 15.3406C86.1817 15.3406 87.364 16.01 88.0271 17.1075L95.5686 29.5921L102.909 17.1362C103.566 16.023 104.755 15.3397 106.041 15.3397C108.048 15.3397 109.676 16.9772 109.683 19.0001L109.742 40.0334H103.373L103.304 26.946V26.9469Z" fill="white"/>
</g>
<defs>
<clipPath id="clip0_575_2">
<rect width="123" height="56" fill="white"/>
</clipPath>
</defs>
</svg>
